inDegrees=yes
name=ik_Xsens_quaternion
DataType=double
version=3
OpenSimVersion=4.4-2022-07-23-0e9fedc
endheader
time	pelvis_tilt	pelvis_list	pelvis_rotation	pelvis_tx	pelvis_ty	pelvis_tz	hip_flexion_r	hip_adduction_r	hip_rotation_r	knee_angle_r	knee_angle_r_beta	ankle_angle_r	subtalar_angle_r	mtp_angle_r	hip_flexion_l	hip_adduction_l	hip_rotation_l	knee_angle_l	knee_angle_l_beta	ankle_angle_l	subtalar_angle_l	mtp_angle_l	lumbar_extension	lumbar_bending	lumbar_rotation	arm_flex_r	arm_add_r	arm_rot_r	elbow_flex_r	pro_sup_r	wrist_flex_r	wrist_dev_r	arm_flex_l	arm_add_l	arm_rot_l	elbow_flex_l	pro_sup_l	wrist_flex_l	wrist_dev_l
24.98333333333333	-4.173281061638623e-13	-2.814865038248663e-12	-1.779107625163908e-12	-2.146713865153743e-24	0.93	2.052442532726679e-23	8.558820988764654e-34	-1.399283767324936e-21	-2.30639618409721e-31	3.099466623292078e-06	5.409589760503241e-08	2.240211915952865e-22	-2.075000001726963	-3.396000005145023	73.08701280681625	8.787846674333924	-39.99790164993914	0.00865627052483614	0.000151080421589556	2.59400000263976	-1.635551033539986e-22	-8.72739180871505e-22	-3.127789396906101e-12	-2.725449066345322e-12	-5.514947405626352e-13	-7.760136394859132e-21	2.468340767917485e-18	-4.154855396760236e-22	3.098852502811601e-06	3.099467029108002e-06	-3.071089477203192e-22	-6.865169654450494e-22	-80.2716486773717	12.97048299263123	-4.044678540251462	0.02206156450373429	44.99707236823843	1.006167937902073e-21	-1.322911004831394e-22
25	0	0	0	0	0.93	0	0	0	0	1.116087395759443e-38	-3.94727440096178e-41	0	-2.075000001726963	-3.396000005145023	73.38138423868041	8.17984279545403	-39.99788323491671	0.00893011884597709	0.0001558599764566966	2.59400000263976	0	0	0	0	0	0	0	0	0	4.552404672320791e-40	0	0	-80.44854691573265	13.05520880053373	-4.138100133327406	0.02210615497161051	44.99709976073109	0	0
25.01666666666667	0	0	0	0	0.93	0	0	0	0	5.645284301529533e-45	0	0	-2.075000001726963	-3.396000005145023	73.66564383671493	7.585841241942689	-39.99785637226206	0.009212851464629242	0.0001607945915549622	2.59400000263976	0	0	0	0	0	0	0	0	5.645284301529533e-45	1.470126120189982e-46	0	0	-80.61412607634374	13.15568412590699	-4.165858387789737	0.02216713674692791	44.99712552088919	0	0
25.03333333333333	0	0	0	0	0.93	0	0	0	0	0	0	0	-2.075000001726963	-3.396000005145023	73.94831766134945	7.013497302797077	-39.99782525239061	0.009499876445114542	0.0001658041224999031	2.59400000263976	0	0	0	0	0	0	0	0	0	5.90830342879519e-39	0	0	-80.78005579758391	13.25415057081987	-4.178984550449699	0.02224727805514283	44.99715113551506	0	0
25.05	0	0	0	0	0.93	0	0	0	0	0	-5.473822126268817e-48	0	-2.075000001726963	-3.396000005145023	74.21511783034002	6.465196494960334	-39.99778993485754	0.009789576304449175	0.0001708603388878569	2.59400000263976	0	0	0	0	0	0	0	0	0	0	0	0	-80.93991991237937	13.34334384562573	-4.192323317016463	0.02232550185134264	44.99717641623602	0	0
25.06666666666667	0	0	0	0	0.93	0	0	0	0	0	0	0	-2.075000001726963	-3.396000005145023	74.46227251517794	5.942202734791695	-39.99775333955679	0.01007022861382116	0.0001757586457397239	2.59400000263976	0	0	0	0	0	0	0	0	3.15707180360567e-38	0	0	0	-81.08376550041686	13.43729467328094	-4.204421747807533	0.02240281440590099	44.99720130562346	0	0
25.08333333333333	0	0	0	0	0.93	0	0	0	0	3.454796382446459e-46	0	0	-2.075000001726963	-3.396000005145023	74.68807949141407	5.439666777785133	-39.9977181181502	0.01034414994953745	0.0001805394749394339	2.59400000263976	0	0	0	0	0	0	0	0	0	0	0	0	-81.21794800195303	13.53283198982754	-4.205111835068556	0.02247776234618315	44.9972258080381	0	0
25.1	0	0	0	0	0.93	0	0	0	0	0	0	0	-2.075000001726963	-3.396000005145023	74.89280409629725	4.960007071539329	-39.99768739361933	0.01062218873482406	0.0001853921671909306	2.59400000263976	0	0	0	0	0	0	0	0	0	0	0	0	-81.34314655183354	13.62569474887253	-4.170377081006447	0.02253811720427113	44.99724998806396	0	0
25.11666666666667	4.339046447235228e-27	-3.798208345904674e-19	-4.339046447235228e-27	3.419129344789263e-23	0.93	1.207551991550957e-23	1.052357267868557e-38	2.035272392800712e-22	2.596664339881915e-29	4.392694454109243e-06	7.666698129531753e-08	3.029318002200984e-17	-2.075000001726963	-3.396000005145023	75.07509294600005	4.51116710072756	-39.9976600668989	0.01091147756980022	0.0001904412098505233	2.594000002639759	-6.855199328717164e-18	-2.66696613630736e-18	-8.858886496438591e-27	7.398905843105116e-23	0	-2.463043442448105e-13	5.089945879582757e-16	-8.089443121805593e-17	4.361135631791883e-06	4.392680353920341e-06	-1.137535545644307e-17	9.152006017543332e-17	-81.46168121844063	13.72867023238464	-4.074876931733847	0.02257205478051423	44.99727393674451	-1.107503838916549e-17	-6.449639441244594e-17
25.13333333333333	0	0	0	0	0.93	0	0	0	0	0	0	0	-2.075000001726963	-3.396000005145023	75.24205141606431	4.092087882968166	-39.99763158371825	0.01122302941716768	0.0001958788153777563	2.59400000263976	0	0	0	0	0	0	0	0	1.052357267868557e-38	0	0	0	-81.58449064094889	13.82437262973733	-3.964997979918986	0.02256058495215898	44.9972977448858	0	0
25.15	0	0	0	0	0.93	0	0	0	0	0	0	0	-2.075000001726963	-3.396000005145023	75.39379497141971	3.720569347588462	-39.99760493025555	0.01153795299417279	0.0002013752686886534	2.59400000263976	0	0	0	0	0	0	0	0	0	0	0	0	-81.70490892493022	13.89949491583868	-3.879291331140614	0.02250211149162989	44.99732081492571	0	0
25.16666666666667	5.183382438157943e-25	2.371465792778478e-24	2.82452776129146e-24	-5.000424065084461e-21	0.93	2.812838604584965e-21	-3.897364894620426e-14	-4.277928802576137e-14	8.912509953140149e-14	1.905875766822799e-14	1.910708970023507e-16	6.759106839430716e-15	-2.075000001726962	-3.396000005145023	75.51871240657921	3.38606592961029	-39.99758244995768	0.01184743895113639	0.0002067768176258271	2.594000002639753	1.751423216299171e-15	8.655245809246741e-24	-3.894439481984644e-14	6.031690010594589e-14	-6.641860741603749e-15	-2.5140565154102e-15	-1.405651938833409e-14	-5.303856701105227e-15	1.693309023633319e-14	1.693313073534537e-14	-2.276188623878783e-24	-3.747810928589925e-23	-81.82100209538045	13.97110473505539	-3.807659134084537	0.02247388687552728	44.99734399759096	7.270369643070861e-24	6.157314538779049e-24
25.18333333333333	0	0	0	0	0.93	0	0	0	0	0	0	0	-2.075000001726963	-3.396000005145023	75.63167649038866	3.059427416952549	-39.99755951476919	0.01216941618440461	0.0002123963804633459	2.59400000263976	0	0	0	0	0	0	0	0	3.211815505435987e-39	3.211815505435987e-39	0	0	-81.94185740250691	14.0301343144843	-3.75996943253116	0.0224770111256523	44.99736695355309	0	0
25.2	1.456334516721573e-11	-2.407549901394888e-12	-1.484110348375419e-11	1.582391720359422e-33	0.93	1.109014267811533e-32	-7.367171283953393e-40	-1.427905691909201e-31	0	1.421917723125307e-14	2.48171459566489e-16	-7.080457440359711e-28	-2.075000001726963	-3.396000005145023	75.72865708235527	2.772830122330615	-39.99754208239118	0.01244980952615789	0.0002172901674937883	2.59400000263976	-4.963560917916048e-32	-9.284240990320268e-32	4.884238315440039e-12	-8.868424120919946e-13	-2.282126286713193e-12	3.189488690971044e-25	1.272999542617747e-27	-3.166346580250367e-26	1.421917725984908e-14	1.421917751207488e-14	-4.193258128753251e-31	2.772159925538438e-31	-82.06984766168125	14.07098747887718	-3.728342596369175	0.02250655212603211	44.99738890138696	2.465375051037768e-31	3.722243220914828e-31
25.21666666666667	-1.644919051339568e-12	-1.456403759624956e-12	-1.869797342814587e-12	-4.100344965350789e-25	0.93	-2.775207915907982e-23	5.887475379600121e-24	-8.086274368322205e-23	0	3.668204570681401e-07	6.402224736091844e-09	-1.713333511857122e-21	-2.075000001726963	-3.396000005145023	75.81210699294776	2.509456027689744	-39.99753218997217	0.012653860856656	0.0002208515350281422	2.59400000263976	-1.161135101270779e-23	-8.338801816800976e-24	-1.806448208373459e-12	-4.898372529326843e-13	2.524877689745762e-13	2.635800658207278e-18	4.278285849981931e-16	5.983146806185089e-21	3.6682045472707e-07	3.668204607396541e-07	-9.169972776037563e-23	1.017372070087152e-23	-82.18441168819011	14.11349144086426	-3.677308059966883	0.02241006121553634	44.99741116225607	1.372280760959888e-22	-1.020674126189051e-22
25.23333333333333	-1.507011383065045e-28	-2.582739210752371e-18	-1.930632068059044e-28	-5.519671262322869e-21	0.93	5.210478394898062e-20	8.052093622291686e-42	-2.523938382740557e-29	-1.34341595582611e-27	0	-1.619376741797528e-15	-1.774701153999067e-16	-2.075000001726963	-3.396000005145023	75.87627168855752	2.284251955690126	-39.99752560144757	0.01281005516381611	0.0002235776399706927	2.59400000263976	-6.81251556150905e-19	2.792270612312369e-20	1.985952638307523e-18	-1.569165018282591e-18	2.851857973089052e-18	6.225912292803357e-17	2.258228726552826e-17	2.076111134429005e-16	3.828420466959721e-15	3.828410901383337e-15	-1.312134440314182e-19	7.505581608845901e-21	-82.30588982773968	14.1649274272119	-3.556622950891882	0.02246455062253501	44.99743344093599	6.772221399734273e-20	-9.78613433658693e-22
25.25	0	0	0	0	0.93	0	0	0	0	0	-2.501051358844557e-39	0	-2.075000001726963	-3.396000005145023	75.92394550998452	2.084196206595968	-39.99752147480093	0.01290851588601161	0.0002252961037568957	2.59400000263976	0	0	0	0	0	0	0	0	2.555736288456526e-37	1.552664291463346e-37	0	0	-82.41638881163342	14.22243541205688	-3.390139677135487	0.02245842051956985	44.99745357641439	0	0
25.26666666666667	0	0	0	0	0.93	0	0	0	0	0	-2.189528850507527e-47	0	-2.075000001726963	-3.396000005145023	75.96431871434773	1.9302646449657	-39.99752409974521	0.0129353263028918	0.0002257640338052872	2.59400000263976	0	0	0	0	0	0	0	0	0	0	0	0	-82.5370416369188	14.26023250900608	-3.236526903946126	0.02245887533081233	44.99747447062219	0	0
25.28333333333333	0	0	0	0	0.93	0	0	0	0	1.896600362434217e-45	2.189528850507527e-47	0	-2.075000001726963	-3.396000005145023	76.00004383033661	1.817806188978396	-39.99752937934969	0.01293634575461278	0.0002257818265943834	2.59400000263976	0	0	0	0	0	0	0	0	0	0	0	0	-82.65990491494905	14.27144216751814	-3.124906252420806	0.02241874906170573	44.99749604870404	0	0
